<svg width="11" height="13" viewBox="0 0 11 13" fill="none" xmlns="http://www.w3.org/2000/svg">
<g clip-path="url(#clip0)">
<path d="M7.23438 4.01562C6.78205 4.01562 6.41406 3.64763 6.41406 3.19531V0.5H2.21875C1.50796 0.5 0.929688 1.07827 0.929688 1.78906V11.2109C0.929688 11.9217 1.50796 12.5 2.21875 12.5H8.78125C9.49204 12.5 10.0703 11.9217 10.0703 11.2109V4.01562H7.23438ZM2.85156 8.9375H4.55594C4.75009 8.9375 4.9075 9.09491 4.9075 9.28906C4.9075 9.48322 4.75009 9.64062 4.55594 9.64062H2.85156C2.65741 9.64062 2.5 9.48322 2.5 9.28906C2.5 9.09491 2.65741 8.9375 2.85156 8.9375ZM2.5 7.41406C2.5 7.21991 2.65741 7.0625 2.85156 7.0625H8.00781C8.20197 7.0625 8.35938 7.21991 8.35938 7.41406C8.35938 7.60822 8.20197 7.76562 8.00781 7.76562H2.85156C2.65741 7.76562 2.5 7.60822 2.5 7.41406ZM8.00781 5.1875C8.20197 5.1875 8.35938 5.34491 8.35938 5.53906C8.35938 5.73322 8.20197 5.89062 8.00781 5.89062H2.85156C2.65741 5.89062 2.5 5.73322 2.5 5.53906C2.5 5.34491 2.65741 5.1875 2.85156 5.1875H8.00781Z" fill="#FEFEFE"/>
<path d="M7.11719 3.19514C7.11719 3.25975 7.16976 3.31232 7.23438 3.31232H9.91361C9.8493 3.19359 9.76656 3.08454 9.66716 2.99048L7.40725 0.852466C7.31955 0.769497 7.22186 0.700286 7.11721 0.64563V3.19514H7.11719Z" fill="#FEFEFE"/>
</g>
<defs>
<clipPath id="clip0">
<rect width="9.14062" height="12" fill="white" transform="translate(0.929688 0.5)"/>
</clipPath>
</defs>
</svg>
