<svg width="11" height="11" viewBox="0 0 11 11" fill="none" xmlns="http://www.w3.org/2000/svg">
<g clip-path="url(#clip0)">
<path d="M5.69336 10.9108C6.5218 10.7931 7.24804 9.92851 7.70503 8.65161C7.0444 8.50366 6.37025 8.42425 5.69336 8.41479V10.9108Z" fill="#FEFEFE"/>
<path d="M7.01726 10.7079C7.06623 10.6937 7.11501 10.6795 7.16341 10.6638C7.20425 10.6506 7.24452 10.6364 7.2848 10.6224C7.33244 10.6059 7.3799 10.589 7.42717 10.571C7.46744 10.5557 7.50734 10.5394 7.54733 10.5232C7.59346 10.5038 7.6395 10.4845 7.68507 10.4651C7.72487 10.4476 7.76438 10.4293 7.8039 10.4109C7.84862 10.3898 7.89314 10.3683 7.93729 10.346C7.97605 10.3263 8.01472 10.3061 8.05348 10.2854C8.09687 10.2622 8.13998 10.2384 8.18281 10.214C8.22157 10.1921 8.25891 10.1701 8.29663 10.1474C8.3386 10.1216 8.38039 10.0958 8.42189 10.07C8.45904 10.0463 8.4961 10.0223 8.53269 9.99756C8.57353 9.97005 8.6138 9.94141 8.65389 9.91276C8.6899 9.88695 8.72573 9.86124 8.7609 9.83533C8.79966 9.80546 8.83937 9.77455 8.87822 9.74354C8.91273 9.71603 8.94714 9.68871 8.98108 9.66044C9.01974 9.6283 9.0568 9.59502 9.09433 9.56175C9.12723 9.53253 9.16032 9.50361 9.19246 9.47364C9.22943 9.43913 9.26545 9.4034 9.30147 9.36794C9.33266 9.33713 9.36424 9.30678 9.39477 9.2752C9.40045 9.26934 9.40584 9.26301 9.4117 9.25696C8.9894 9.03886 8.5446 8.86766 8.08505 8.74646C7.84606 9.50862 7.42074 10.1993 6.84766 10.7557C6.86335 10.7517 6.87904 10.7484 6.89474 10.7443C6.93614 10.7327 6.97679 10.7199 7.01726 10.7079V10.7079Z" fill="#FEFEFE"/>
<path d="M10.9175 5.69873H8.59599C8.5872 6.60515 8.4557 7.50617 8.20508 8.37733C8.71615 8.51384 9.20935 8.7101 9.67448 8.96204C10.4382 8.04163 10.8753 6.89405 10.9175 5.69873V5.69873Z" fill="#FEFEFE"/>
<path d="M5.69336 5.31171H8.20778C8.19795 4.43734 8.06966 3.56836 7.8266 2.72839C7.12646 2.88807 6.41137 2.97334 5.69336 2.98279V5.31171Z" fill="#FEFEFE"/>
<path d="M5.69336 0.0992432V2.5953C6.37025 2.58575 7.0444 2.50643 7.70503 2.35848C7.24804 1.08158 6.5218 0.216942 5.69336 0.0992432V0.0992432Z" fill="#FEFEFE"/>
<path d="M5.69336 8.02764C6.41137 8.03719 7.12646 8.12247 7.8266 8.28214C8.06966 7.44218 8.19795 6.5731 8.20778 5.69873H5.69336V8.02764Z" fill="#FEFEFE"/>
<path d="M9.67448 2.04834C9.20935 2.30028 8.71615 2.49654 8.20508 2.63305C8.4557 3.50421 8.5872 4.40524 8.59599 5.31166H10.9175C10.8752 4.11643 10.4381 2.96885 9.67448 2.04834V2.04834Z" fill="#FEFEFE"/>
<path d="M9.41322 1.75417C9.40754 1.74841 9.40215 1.74217 9.39658 1.73621C9.36595 1.70464 9.33418 1.6742 9.30298 1.64347C9.26706 1.60802 9.23123 1.57219 9.19417 1.53778C9.16212 1.50791 9.12894 1.47964 9.09604 1.44986C9.05851 1.41658 9.02098 1.38302 8.98241 1.35088C8.94894 1.32261 8.91462 1.29558 8.88059 1.26844C8.84183 1.23706 8.80213 1.20586 8.76223 1.17589C8.72725 1.14952 8.6918 1.12399 8.65616 1.09847C8.6157 1.06935 8.57505 1.04033 8.53383 1.01263C8.49762 0.988236 8.46084 0.964413 8.42407 0.941062C8.38219 0.914119 8.3404 0.887744 8.29777 0.862219C8.26043 0.839813 8.2227 0.817692 8.18489 0.796232C8.14159 0.771463 8.0982 0.747451 8.05443 0.724006C8.01567 0.704626 7.977 0.683544 7.93824 0.664164C7.89371 0.641664 7.84881 0.620015 7.80277 0.598744C7.76401 0.58031 7.72468 0.562348 7.68479 0.544858C7.63894 0.524533 7.59261 0.506193 7.54638 0.486813C7.50649 0.470552 7.46678 0.454481 7.42651 0.439166C7.37952 0.421204 7.33188 0.404377 7.28423 0.387927C7.24396 0.373747 7.20368 0.359661 7.16284 0.346426C7.11444 0.330733 7.06604 0.316457 7.01631 0.302088C6.97604 0.290271 6.93558 0.278265 6.89483 0.267487C6.87923 0.263233 6.86335 0.259924 6.84766 0.255859C7.42074 0.812303 7.84597 1.50289 8.08506 2.26515C8.54508 2.14395 8.99054 1.97265 9.41322 1.75417V1.75417Z" fill="#FEFEFE"/>
<path d="M0.0839844 5.31166H2.40543C2.41422 4.40524 2.54572 3.50421 2.79625 2.63305C2.28527 2.49663 1.79208 2.30038 1.32695 2.04834C0.563286 2.96875 0.126148 4.11643 0.0839844 5.31166Z" fill="#FEFEFE"/>
<path d="M5.30657 10.9108V8.41479C4.62969 8.42434 3.95555 8.50366 3.29492 8.65161C3.75182 9.92851 4.47814 10.7931 5.30657 10.9108Z" fill="#FEFEFE"/>
<path d="M5.30737 5.69873H2.79297C2.8028 6.5731 2.93099 7.44218 3.17414 8.28214C3.87428 8.12237 4.58927 8.0371 5.30737 8.02764V5.69873Z" fill="#FEFEFE"/>
<path d="M5.30657 0.0992432C4.47814 0.216942 3.75182 1.08158 3.29492 2.35848C3.95555 2.50653 4.62969 2.58585 5.30657 2.5953V0.0992432Z" fill="#FEFEFE"/>
<path d="M5.30737 2.98279C4.58936 2.97334 3.87428 2.88807 3.17414 2.72839C2.93099 3.56836 2.8028 4.43734 2.79297 5.31171H5.30737V2.98279Z" fill="#FEFEFE"/>
<path d="M4.15331 0.255371C4.13762 0.259436 4.12192 0.262745 4.10623 0.26681C4.0652 0.277776 4.02474 0.289972 3.9839 0.301789C3.93531 0.315969 3.88709 0.330244 3.83831 0.345748C3.79719 0.359078 3.75673 0.373259 3.71627 0.387345C3.6689 0.404078 3.62145 0.420716 3.57455 0.438489C3.53409 0.453993 3.4942 0.470064 3.45411 0.486514C3.40808 0.505894 3.36194 0.525274 3.31647 0.544559C3.27657 0.562049 3.23715 0.580389 3.19764 0.598823C3.15292 0.619905 3.10839 0.641365 3.06424 0.663676C3.02548 0.683434 2.98672 0.703665 2.94806 0.724274C2.90467 0.74753 2.86165 0.771353 2.81892 0.795744C2.78016 0.817393 2.74206 0.839609 2.70472 0.862298C2.66265 0.887633 2.62105 0.91382 2.57965 0.939723C2.5424 0.963547 2.50544 0.987559 2.46885 1.01233C2.42801 1.03984 2.38774 1.06848 2.34765 1.09713C2.31163 1.12294 2.2758 1.14865 2.24054 1.17465C2.20093 1.20443 2.16312 1.23543 2.12322 1.26635C2.08881 1.29386 2.05412 1.32118 2.02046 1.34963C1.9817 1.38159 1.94492 1.41468 1.90758 1.44776C1.87449 1.47726 1.84112 1.5059 1.80879 1.53644C1.77202 1.57076 1.73619 1.6064 1.70026 1.64175C1.66907 1.67257 1.6373 1.70301 1.60667 1.73468C1.60109 1.74054 1.59571 1.74697 1.58984 1.75293C2.01205 1.97112 2.45694 2.14233 2.91648 2.26352C3.15547 1.50174 3.58051 0.811531 4.15331 0.255371V0.255371Z" fill="#FEFEFE"/>
<path d="M1.69847 9.36617C1.73449 9.40162 1.77031 9.43745 1.80728 9.47195C1.83942 9.50173 1.87251 9.53 1.9055 9.55978C1.94303 9.59315 1.98056 9.62662 2.01914 9.65876C2.0526 9.68683 2.08673 9.71397 2.12095 9.74119C2.15971 9.77258 2.19838 9.80378 2.23941 9.83393C2.27429 9.86012 2.30974 9.88546 2.34519 9.91145C2.38565 9.94048 2.42649 9.9695 2.46771 9.99739C2.50392 10.0218 2.5407 10.0456 2.57747 10.069C2.61935 10.0959 2.66113 10.1223 2.70377 10.1478C2.74111 10.1703 2.77883 10.1923 2.81665 10.2139C2.85995 10.2386 2.90334 10.2627 2.94711 10.286C2.98577 10.3054 3.02453 10.3265 3.06329 10.3458C3.10782 10.3683 3.15273 10.39 3.19877 10.4114C3.23753 10.4296 3.27685 10.4476 3.31675 10.4652C3.3626 10.4855 3.40883 10.5038 3.45515 10.5232C3.49504 10.5395 3.53475 10.5555 3.57502 10.5708C3.62201 10.5889 3.66965 10.6057 3.7173 10.6222C3.75757 10.6363 3.79785 10.6504 3.83869 10.6636C3.88709 10.6793 3.93549 10.6936 3.98522 10.7079C4.02549 10.7197 4.06595 10.7317 4.1066 10.7426C4.1223 10.7469 4.13818 10.7502 4.15387 10.7542C3.58079 10.1977 3.15556 9.50712 2.91648 8.74487C2.45694 8.86616 2.01205 9.03737 1.58984 9.25565C1.59552 9.26142 1.6009 9.26766 1.60658 9.27362C1.6356 9.305 1.66689 9.33544 1.69847 9.36617V9.36617Z" fill="#FEFEFE"/>
<path d="M1.32695 8.96204C1.79208 8.7101 2.28527 8.51384 2.79625 8.37733C2.54572 7.50617 2.41422 6.60515 2.40543 5.69873H0.0839844C0.126242 6.89396 0.563286 8.04153 1.32695 8.96204V8.96204Z" fill="#FEFEFE"/>
</g>
<defs>
<clipPath id="clip0">
<rect width="10.8333" height="10.8333" fill="white" transform="translate(0.0839844 0.083374)"/>
</clipPath>
</defs>
</svg>
