<svg width="30" height="20" viewBox="0 0 30 20" fill="none" xmlns="http://www.w3.org/2000/svg">
<g clip-path="url(#clip0)">
<path d="M28.9718 1.42896L20.3452 10L28.9718 18.5711C29.1278 18.2451 29.2224 17.8848 29.2224 17.5V2.50001C29.2224 2.11518 29.1278 1.7549 28.9718 1.42896Z" fill="#FEFEFE"/>
<path d="M26.7223 0H3.27784C2.89301 0 2.53273 0.0946114 2.20679 0.250556L13.2325 11.2207C14.2074 12.1956 15.7927 12.1956 16.7676 11.2207L27.7933 0.250556C27.4674 0.0946114 27.1071 0 26.7223 0Z" fill="#FEFEFE"/>
<path d="M1.02839 1.42896C0.872443 1.7549 0.777832 2.11518 0.777832 2.50001V17.5C0.777832 17.8848 0.872443 18.2452 1.02839 18.5711L9.655 10L1.02839 1.42896Z" fill="#FEFEFE"/>
<path d="M19.1667 11.1783L17.946 12.3991C16.3216 14.0235 13.6785 14.0235 12.0541 12.3991L10.8334 11.1783L2.20679 19.7494C2.53273 19.9053 2.89301 20 3.27784 20H26.7223C27.1071 20 27.4674 19.9053 27.7933 19.7494L19.1667 11.1783Z" fill="#FEFEFE"/>
</g>
<defs>
<clipPath id="clip0">
<rect width="28.4444" height="20" fill="white" transform="translate(0.777832)"/>
</clipPath>
</defs>
</svg>
