<?xml version="1.0" encoding="utf-8"?>
<!-- Generator: Adobe Illustrator 25.2.0, SVG Export Plug-In . SVG Version: 6.00 Build 0)  -->
<svg version="1.1" id="Layer_1" xmlns="http://www.w3.org/2000/svg" xmlns:xlink="http://www.w3.org/1999/xlink" x="0px" y="0px"
	 viewBox="0 0 32 26" style="enable-background:new 0 0 32 26;" xml:space="preserve">
<style type="text/css">
	.st0{fill:#F4B844;}
</style>
<path class="st0" d="M2.7,11.4L20.9,4c1.8-0.8,7.9-3.2,7.9-3.2s2.8-1.1,2.6,1.5c-0.1,1.1-0.7,4.9-1.3,9l-2,12.1c0,0-0.2,1.8-1.5,2.1
	c-1.3,0.3-3.5-1.1-3.9-1.4c-0.3-0.2-5.9-3.7-7.9-5.4c-0.5-0.5-1.2-1.4,0.1-2.5c2.8-2.6,6.2-5.7,8.2-7.7C24,7.5,24.9,5.4,21,8
	l-11,7.3c0,0-1.2,0.8-3.6,0.1c-2.3-0.7-5.1-1.6-5.1-1.6S-0.6,12.6,2.7,11.4L2.7,11.4z"/>
</svg>
