<svg width="32" height="26" viewBox="0 0 32 26" fill="none" xmlns="http://www.w3.org/2000/svg">
<path d="M2.65112 11.3876L20.852 3.96715C22.6487 3.19419 28.7417 0.720708 28.7417 0.720708C28.7417 0.720708 31.5539 -0.361438 31.3195 2.26663C31.2414 3.34878 30.6165 7.13629 29.9916 11.233L28.0387 23.3685C28.0387 23.3685 27.8824 25.1463 26.5545 25.4555C25.2265 25.7647 23.0393 24.3733 22.6487 24.0641C22.3362 23.8323 16.79 20.3539 14.759 18.6534C14.2122 18.1896 13.5873 17.2621 14.8371 16.1799C17.6493 13.6292 21.0083 10.46 23.0393 8.45032C23.9767 7.52277 24.914 5.35848 21.0083 7.98654L9.99398 15.3297C9.99398 15.3297 8.74413 16.1026 6.40066 15.407C4.0572 14.7113 1.32315 13.7838 1.32315 13.7838C1.32315 13.7838 -0.551621 12.6243 2.65112 11.3876V11.3876Z" fill="white"/>
</svg>
