<svg width="30" height="26" viewBox="0 0 30 26" fill="none" xmlns="http://www.w3.org/2000/svg">
<path d="M9.59229 25.5C20.5959 25.5 26.616 15.8808 26.616 7.54153C26.616 7.2711 26.6104 6.99467 26.599 6.72425C27.7701 5.83082 28.7807 4.72419 29.5834 3.45634C28.4927 3.96825 27.3347 4.30257 26.1489 4.44789C27.3975 3.6584 28.3323 2.41814 28.7802 0.957033C27.6056 1.69135 26.3211 2.20935 24.9817 2.48883C24.0792 1.47726 22.886 0.807487 21.5865 0.583053C20.287 0.358618 18.9536 0.592026 17.7925 1.24719C16.6313 1.90235 15.7071 2.94278 15.1627 4.20761C14.6184 5.47244 14.4841 6.89124 14.7808 8.24463C12.4024 8.11872 10.0757 7.46697 7.95145 6.33162C5.8272 5.19627 3.95283 3.60267 2.44987 1.65412C1.68598 3.04347 1.45223 4.68751 1.79613 6.25213C2.14002 7.81674 3.03575 9.18453 4.30127 10.0775C3.35119 10.0457 2.42193 9.77583 1.59025 9.29026V9.36838C1.5894 10.8264 2.06721 12.2397 2.94247 13.3681C3.81773 14.4965 5.03641 15.2703 6.39136 15.5581C5.51126 15.8121 4.58756 15.8491 3.69173 15.6662C4.07407 16.9201 4.81797 18.0168 5.81959 18.8033C6.82122 19.5897 8.03061 20.0266 9.27897 20.0531C7.15962 21.8093 4.54161 22.7618 1.8466 22.7573C1.36866 22.7565 0.891191 22.7256 0.416748 22.6648C3.15459 24.5177 6.33944 25.5018 9.59229 25.5Z" fill="#FEFEFE"/>
</svg>
